# xmcd
#
# Track frame offsets:
#	150
#	28730
#	52656
#	76727
#	99584
#	125868
#	148730
#	165868
#	192725
#	221868
#	243582
#	267582
#	279009
#	293867
#	316723
#	339581
#
# Disc length: 4792 seconds
#
# Revision: 0
# Processed by: cddbd v1.5.2PL0 Copyright (c) Steve Scherf et al.
# Submitted via: EasyCDDAExtractor 12.0.4.1
#
DISCID=ed12b610
DTITLE=Various Artist - Kontor Vocal House Selection CD 01
DYEAR=2009
DGENRE=House
TTITLE0=Follow Me (Fred Everything and Olivier Desmet SF Vocal) - Aly-Us
TTITLE1=Hardrive - Deep Inside (Mr. V Sole Channel Remix)
TTITLE2=Dennis Ferrer - Hey Hey
TTITLE3=Bangana feat. Asha Edmund - Oblivion (Sumo Remix)
TTITLE4=The Junks and Michelle Weeks - Shame (Groove Assassins Vocal Mix)
TTITLE5=Michael Mendoza feat. I-Fan - Be Without You (Hardsoul Reconstructions
TTITLE5=)
TTITLE6=Fresh Tunes #1 - Ha Ha (CP Re-Edit)
TTITLE7=Michel Cleis feat. Totó La Momposina - La Mezcla (Copyright Main Mix)
TTITLE8=A-Jam feat. Natalie Broomes - You Lift Me Up (TJ Cases 2009 Remix)
TTITLE9=Sultan and Ned Shepard - ATFC - Roads Under Ramallah - Juss A Beat (Acca
TTITLE9=pella)
TTITLE10=Yasmeen - Ready Or Not (Copyright Club Mix)
TTITLE11=Chocolate Puma vs. Baggi Begovic feat. Mitch Grown - Solarianism
TTITLE12=Fedde Le Grand vs. Danny P-Jazz - New Life (Fedde Le Grand and Funkerma
TTITLE12=n Re-Edit)
TTITLE13=Yass and Jay Sebag - All To Me (Daniel Bovie and Roy Rox Remix)
TTITLE14=Axwell/Ingrosso/Angelo/Laidback Luke feat. Deborah Cox - Leave The Wo
TTITLE14=rld Behind (Dimitri Vegas and Like Mike vs. Shm Dark Forest Edit)
TTITLE15=Photon Inc. feat. Paula Brion - Generate Power (Soul Avengerz Club So
TTITLE15=da Remix)
EXTD=
EXTT0=
EXTT1=
EXTT2=
EXTT3=
EXTT4=
EXTT5=
EXTT6=
EXTT7=
EXTT8=
EXTT9=
EXTT10=
EXTT11=
EXTT12=
EXTT13=
EXTT14=
EXTT15=
PLAYORDER=
